<?xml version="1.0" standalone="no"?>
<!DOCTYPE svg PUBLIC "-//W3C//DTD SVG 20010904//EN"
 "http://www.w3.org/TR/2001/REC-SVG-20010904/DTD/svg10.dtd">
<svg version="1.0" xmlns="http://www.w3.org/2000/svg"
 width="735.000000pt" height="735.000000pt" viewBox="0 0 735.000000 735.000000"
 preserveAspectRatio="xMidYMid meet">
<metadata>
Created by potrace 1.14, written by Peter Selinger 2001-2017
</metadata>
<g transform="translate(0.000000,735.000000) scale(0.100000,-0.100000)"
fill="#000000" stroke="none">
<path d="M5440 5929 c-303 -22 -575 -96 -856 -234 -775 -379 -1308 -1169
-1430 -2122 -22 -169 -22 -480 0 -627 55 -373 188 -663 411 -895 245 -254 543
-395 945 -446 192 -25 499 -17 700 18 517 91 937 311 1301 684 407 416 670
996 754 1663 26 203 17 548 -20 720 -69 329 -190 571 -390 779 -119 124 -234
209 -380 281 -209 104 -424 160 -690 180 -153 11 -189 11 -345 -1z m195 -768
c330 -68 546 -334 610 -751 22 -141 19 -395 -5 -564 -112 -759 -521 -1342
-1032 -1470 -155 -39 -283 -42 -438 -9 -410 84 -641 482 -617 1063 25 586 265
1162 615 1474 249 223 572 318 867 257z"/>
<path d="M190 5862 c0 -11 -130 -741 -137 -769 l-5 -23 567 0 567 0 -6 -32
c-54 -294 -596 -3354 -596 -3364 0 -12 74 -14 474 -14 443 0 475 1 480 18 3 9
138 766 301 1682 162 916 297 1675 300 1688 l5 22 574 0 574 0 6 28 c8 39 136
760 136 767 0 3 -729 5 -1620 5 -891 0 -1620 -4 -1620 -8z"/>
</g>
</svg>
